<?xml version="1.0" standalone="no"?>
<!DOCTYPE svg PUBLIC "-//W3C//DTD SVG 20010904//EN"
 "http://www.w3.org/TR/2001/REC-SVG-20010904/DTD/svg10.dtd">
<svg version="1.0" xmlns="http://www.w3.org/2000/svg"
 width="588.000000pt" height="729.000000pt" viewBox="0 0 588.000000 729.000000"
 preserveAspectRatio="xMidYMid meet">

<g transform="translate(0.000000,729.000000) scale(0.100000,-0.100000)"
fill="#000000" stroke="none">
<path d="M2692 6706 c-24 -8 -51 -21 -60 -29 -43 -37 -57 -38 -119 -9 -56 26
-64 27 -208 26 -152 -2 -169 -5 -290 -51 -71 -28 -203 -114 -210 -138 -4 -11
-20 -50 -36 -86 -16 -37 -34 -94 -40 -128 -10 -54 -14 -61 -34 -61 -23 0 -195
-125 -226 -164 -9 -12 -43 -48 -76 -81 -138 -141 -297 -447 -305 -590 -2 -34
-10 -48 -58 -95 -31 -30 -64 -72 -73 -92 -24 -50 -40 -143 -32 -180 l7 -31
-33 20 c-19 11 -48 23 -65 26 -46 9 -60 -14 -68 -103 -3 -41 -6 -491 -7 -999
-1 -821 1 -926 14 -930 16 -6 96 -108 189 -244 32 -46 66 -92 75 -103 156
-172 242 -265 272 -293 20 -18 104 -99 186 -180 139 -136 330 -307 382 -342
30 -21 273 -242 273 -249 0 -6 -94 -33 -193 -55 -38 -8 -130 -38 -205 -66 -74
-29 -163 -58 -196 -66 -58 -13 -63 -13 -99 8 -47 26 -101 22 -147 -11 -39 -28
-103 -122 -125 -185 -21 -60 -23 -184 -5 -250 16 -58 88 -139 137 -156 98 -32
257 18 326 103 37 45 70 138 60 165 -10 26 9 13 141 -91 l124 -100 -30 -36
c-59 -74 -79 -221 -40 -296 33 -65 79 -103 153 -125 55 -17 73 -18 115 -9 71
16 180 85 220 139 34 46 64 128 64 173 0 39 -38 140 -62 165 -12 13 -19 25
-16 28 2 3 67 25 144 51 136 44 164 51 389 99 169 36 626 150 755 189 63 18
177 50 254 70 76 20 165 47 199 61 34 13 62 23 63 22 1 -1 -4 -27 -12 -57 -51
-197 37 -313 219 -288 104 14 177 70 234 180 24 47 27 64 27 153 1 92 -1 104
-27 148 -15 26 -25 47 -22 47 3 0 1 9 -5 20 -12 23 -6 77 34 292 54 286 67
428 84 914 7 182 8 193 29 210 22 18 24 30 48 444 13 234 29 499 35 590 59
953 68 1158 50 1176 -12 12 24 99 75 179 17 28 48 84 69 125 21 41 40 77 42
79 2 2 23 -14 47 -35 102 -90 235 -97 320 -16 44 41 57 75 57 145 0 54 -4 70
-28 103 -34 46 -122 94 -172 94 -80 -1 -167 -26 -219 -63 -28 -20 -58 -37 -66
-37 -9 0 -61 11 -118 25 -381 91 -536 125 -576 125 -24 0 -29 6 -44 54 -22 70
-61 91 -146 81 -77 -9 -220 -35 -247 -45 -54 -21 -58 43 -9 139 59 115 97 247
90 306 -11 84 -50 130 -129 149 -42 10 -231 -11 -375 -41 l-123 -27 -47 26
c-25 14 -91 41 -146 59 -91 29 -113 33 -245 36 -105 2 -157 -1 -188 -11z m408
-123 c172 -61 196 -78 400 -283 215 -216 238 -245 319 -415 23 -49 49 -97 56
-105 37 -42 98 -260 110 -395 4 -38 11 -87 16 -108 6 -23 7 -95 3 -182 l-7
-144 -181 -77 c-100 -42 -305 -129 -456 -194 -412 -175 -904 -385 -1183 -504
-137 -58 -254 -103 -260 -99 -27 17 -127 95 -133 104 -3 5 -27 27 -54 48 l-48
38 70 7 c123 11 216 68 275 167 79 133 56 305 -56 416 -109 108 -282 129 -413
49 l-53 -32 28 55 c37 74 39 190 3 268 -52 112 -160 183 -278 183 -79 0 -80 2
-48 96 45 130 108 255 173 343 82 111 285 301 322 301 3 0 5 -30 5 -67 0 -226
109 -425 313 -574 21 -15 77 -42 125 -59 82 -30 94 -31 203 -28 116 3 116 3
211 50 76 38 108 61 158 114 74 80 128 184 154 300 l19 81 68 6 c89 7 214 63
229 102 17 46 -18 85 -78 85 -32 0 -171 -45 -186 -60 -23 -23 -33 -8 -40 58
-3 37 -9 79 -12 95 -6 27 -6 27 42 27 50 0 113 23 165 61 22 15 29 28 29 53 0
45 -22 61 -84 60 -64 0 -167 -39 -173 -65 -5 -18 -23 -27 -23 -11 0 17 -80
128 -126 174 l-48 48 24 18 c39 27 67 31 205 28 115 -2 140 -6 215 -33z m-614
-12 c58 -26 172 -135 223 -215 55 -84 81 -190 81 -326 0 -243 -93 -412 -276
-499 -79 -38 -91 -41 -172 -41 -132 0 -222 33 -318 117 -101 88 -180 213 -203
321 -26 122 -7 346 39 449 45 102 181 190 330 213 90 14 243 4 296 -19z m1321
-7 c15 -4 27 -19 34 -44 9 -31 8 -48 -11 -106 -31 -97 -81 -204 -97 -204 -7 0
-13 4 -13 8 0 5 -35 42 -77 83 -42 41 -107 106 -144 144 l-68 70 42 13 c23 7
94 19 157 26 146 17 150 17 177 10z m357 -566 c12 -45 5 -104 -17 -159 -27
-65 -95 -179 -107 -179 -4 0 -20 32 -34 71 -15 40 -35 84 -45 98 -31 45 -72
132 -67 140 3 5 45 16 93 24 49 9 97 18 108 21 48 9 63 6 69 -16z m341 -158
c110 -27 257 -61 327 -77 160 -35 160 -35 77 -183 -33 -58 -76 -140 -97 -183
l-37 -78 -35 5 c-19 2 -118 23 -220 46 -102 22 -242 53 -312 68 -160 34 -162
37 -84 156 62 95 105 177 132 254 14 39 22 51 34 46 8 -3 105 -27 215 -54z
m824 -30 c43 -22 51 -35 51 -89 0 -75 -79 -110 -164 -73 -59 27 -95 68 -96
109 0 37 17 49 83 63 66 13 85 11 126 -10z m-1048 -490 c101 -22 228 -50 282
-62 53 -11 96 -22 94 -24 -6 -6 -523 -224 -537 -227 -13 -2 -15 19 -15 133 0
74 -4 154 -9 178 -5 23 -7 42 -4 42 2 0 87 -18 189 -40z m-2955 -51 c39 -12
102 -72 120 -114 22 -54 18 -144 -9 -196 -44 -84 -154 -134 -244 -110 -101 27
-165 110 -166 217 -2 157 138 252 299 203z m3456 -136 c-3 -43 -37 -623 -82
-1413 -17 -294 -33 -549 -36 -565 -4 -30 -7 -31 -112 -58 -59 -14 -174 -44
-257 -66 -82 -21 -285 -74 -450 -116 -441 -114 -699 -180 -890 -230 -93 -24
-285 -73 -425 -109 -140 -36 -367 -94 -504 -130 l-249 -64 7 72 c8 101 30 330
66 701 16 176 39 417 50 535 24 254 28 280 40 280 5 0 208 85 452 189 455 194
1091 465 1463 623 116 49 242 103 280 119 263 116 623 267 635 268 12 1 15 -8
12 -36z m-3879 -245 c83 -59 191 -152 282 -243 95 -96 260 -279 290 -322 8
-11 54 -53 102 -94 48 -40 114 -96 145 -124 31 -27 68 -59 83 -70 l27 -20 -46
-480 c-25 -264 -51 -529 -57 -590 -6 -60 -19 -192 -28 -292 -10 -101 -20 -185
-23 -188 -3 -3 -187 140 -409 317 l-404 323 -3 903 c-1 496 1 902 4 902 3 0
20 -10 37 -22z m886 -39 c60 -12 131 -71 163 -132 25 -50 27 -145 4 -200 -66
-154 -284 -193 -397 -70 -48 51 -64 92 -63 169 0 62 4 78 30 120 44 71 103
107 206 123 4 1 29 -4 57 -10z m-361 -86 c-17 -35 -31 -83 -35 -121 l-6 -63
-72 78 -73 78 62 16 c63 16 120 41 131 59 3 5 10 10 14 10 4 0 -5 -26 -21 -57z
m3172 -2116 c-5 -54 -10 -140 -10 -191 0 -51 -9 -159 -20 -238 -20 -149 -70
-439 -77 -447 -2 -3 -11 6 -20 20 -10 13 -41 49 -70 80 -29 31 -53 60 -53 65
0 5 -16 34 -36 63 l-37 54 27 176 c15 97 32 203 38 236 6 36 7 143 4 267 l-6
208 27 7 c16 3 75 18 133 33 l105 26 3 -130 c2 -72 -2 -175 -8 -229z m-357
166 c11 -159 8 -303 -8 -378 -8 -38 -22 -124 -31 -190 -8 -66 -17 -122 -20
-124 -3 -3 -18 3 -33 12 -54 32 -165 17 -220 -29 -36 -30 -148 -65 -406 -129
-104 -26 -206 -53 -225 -60 -82 -30 -217 -67 -388 -104 l-183 -41 -79 40 c-43
22 -109 59 -147 84 -37 24 -104 62 -149 84 -77 39 -227 137 -346 228 -31 24
-76 53 -99 64 -23 12 -37 25 -33 30 5 4 63 21 129 38 141 36 773 198 960 247
72 18 256 66 410 106 154 39 406 104 560 145 154 40 285 73 291 73 7 1 13 -35
17 -96z m-3120 -40 c40 -32 77 -62 83 -68 6 -5 104 -84 218 -174 201 -158 207
-164 201 -193 -9 -38 25 -78 66 -78 28 0 193 -83 239 -121 83 -67 300 -210
385 -253 55 -29 120 -65 145 -82 25 -17 65 -42 90 -54 44 -22 44 -23 20 -33
-67 -26 -296 -85 -306 -79 -6 4 -67 58 -135 121 -68 63 -155 139 -194 170
-110 86 -197 165 -349 314 -78 76 -153 149 -168 161 -70 55 -394 426 -373 426
3 0 38 -26 78 -57z m3061 -872 c-9 -54 -42 -74 -134 -79 -99 -6 -120 5 -120
58 0 50 28 109 55 116 11 2 56 8 100 12 l80 7 12 -39 c7 -22 10 -55 7 -75z
m-352 -22 c-4 -69 -3 -70 33 -104 46 -44 100 -58 202 -53 69 4 90 9 130 34 28
17 54 43 63 61 8 18 18 33 21 33 4 0 26 -22 50 -49 97 -107 139 -160 130 -165
-5 -3 -80 -30 -168 -60 -88 -29 -173 -61 -190 -70 -17 -8 -131 -43 -254 -77
-123 -34 -281 -77 -350 -97 l-126 -35 -22 22 c-11 11 -24 21 -28 21 -5 0 -21
13 -38 28 -16 15 -56 47 -88 71 -32 24 -87 69 -122 100 -35 32 -95 80 -134
106 -39 27 -69 50 -67 53 3 2 58 15 123 29 65 13 181 44 258 68 77 24 221 64
320 89 99 25 192 49 205 55 52 21 55 17 52 -60z m-987 -290 c58 -39 134 -97
169 -129 36 -32 91 -78 123 -101 77 -57 107 -85 97 -91 -5 -3 -38 -12 -74 -21
-193 -47 -247 -59 -380 -87 -143 -30 -242 -60 -491 -146 -69 -24 -148 -49
-176 -55 l-51 -12 -98 79 c-54 43 -158 126 -230 184 l-130 106 155 58 c86 32
185 65 221 73 105 25 579 160 655 187 39 14 78 26 88 26 9 0 64 -32 122 -71z
m1693 -89 c9 -17 12 -48 8 -95 -8 -123 -74 -208 -175 -224 -40 -6 -59 -4 -84
8 -32 16 -32 16 -31 92 1 89 10 108 66 146 24 16 44 38 46 49 4 25 72 54 122
51 25 -1 38 -9 48 -27z m-3041 -224 c55 -45 62 -55 62 -88 1 -20 4 -38 9 -40
4 -1 15 -20 24 -40 17 -36 17 -40 -1 -80 -10 -24 -27 -51 -37 -60 -35 -31
-108 -58 -160 -58 -42 0 -54 4 -76 28 -41 43 -50 69 -51 151 -1 69 2 85 31
144 39 79 73 110 111 100 14 -3 54 -29 88 -57z m804 -425 c64 -64 59 -171 -11
-240 -43 -44 -120 -83 -163 -84 -42 -1 -105 31 -130 65 -25 34 -24 114 2 173
22 50 63 77 150 99 36 9 67 19 69 21 10 10 58 -10 83 -34z"/>
<path d="M2115 6403 c-66 -35 -135 -95 -160 -137 -33 -56 -27 -88 22 -111 69
-33 199 20 296 120 60 63 72 99 41 129 -22 22 -158 21 -199 -1z"/>
<path d="M2360 6121 c-78 -12 -163 -70 -196 -133 -21 -40 -18 -101 6 -123 43
-39 143 -29 225 24 85 54 121 109 110 167 -10 57 -57 78 -145 65z"/>
</g>
</svg>
